<svg width="1645" height="3291" viewBox="0 0 1645 3291" fill="none" xmlns="http://www.w3.org/2000/svg">
<path fill-rule="evenodd" clip-rule="evenodd" d="M1136.92 1639.63C1163.26 1640.22 1151.96 1394 1134.38 1348.62C1131.91 1339.43 1129.88 1326.86 1130.29 1315.58C1152.04 1317.76 1149.7 1302.84 1148.58 1284.85C1148.95 1270.57 1149.94 1241.1 1128.12 1252.57C1062.71 1121.36 1133.43 782.182 961.221 750.236C940.47 745.186 919.022 739.96 901.551 725.543C883.064 691.3 873.648 686.926 843.014 684.711C837.342 653.867 826.739 620.916 795.142 608.913C766.213 597.554 732.544 596.648 702.379 602.71C677.412 610.87 675.128 657.372 669.582 680.3C635.955 671.365 594.513 652.572 576.409 695.173C567.641 692.547 559.516 694.252 550.606 697.175C475.927 709.232 403.472 743.084 375.773 813.718C358.664 856.105 370.806 902.246 377.223 946.144C383.207 993.946 367.427 1038.23 360.112 1084.21C349.22 1147.52 347.251 1198.31 354.358 1245.37C335.572 1249.65 334.186 1266.77 341.787 1284.69C344.019 1290.75 346.267 1297.15 351.202 1300.57C361.242 1306.91 374.218 1299.61 385.129 1298.49C387.399 1323.77 391.793 1348.58 399.065 1376.78C396.959 1385.22 394.544 1394.64 392.375 1403.12L391.643 1402.32C366.733 1506.87 292.647 1608.43 315.673 1719.55C317.027 1723.25 319.596 1722.48 321.569 1722.41C332.999 1726.77 343.498 1724.01 355.025 1724.45C382.366 1724.47 408.78 1727.98 433.284 1731.03C437.763 1760.35 452.326 1808.35 478.296 1819.53C478.733 1819.68 486.431 1818.07 487.075 1818.03C417.939 2098.93 293.544 2358.67 244.132 2645.23C243.839 2648.73 249.518 2646.88 251.381 2647.3C251.126 2655.26 256.253 2657.17 263.433 2660C254.181 2679.38 245.847 2698.73 236.636 2718.17C232.366 2727.78 225.405 2737.28 224.137 2747.57C213.941 2754.09 207.073 2766.86 207.255 2778.77C179.759 2790.42 187.232 2847.94 180.959 2876.42C174.616 2918.87 144.445 2948.5 123.757 2983.3C119.542 2990.29 115.052 2999.44 114.853 3008.21C102.028 3014.24 97.2463 3027.4 98.0949 3049.55C98.0492 3075.46 105.345 3085.33 125.017 3085.96C178.45 3091.31 240.801 3089.13 294.544 3083.05C334.748 3077.92 370.374 3082.17 361.386 3033.77C359.536 3022.05 363.089 3006.27 356.167 2996.79C351.9 2968.55 354.383 2940.1 363.585 2912.21C369.179 2888.72 378.631 2840.21 374.715 2808.7C372.903 2794.12 343.207 2786.1 337.98 2785.39C339.643 2774.42 338.911 2755.24 333.019 2747.62C343.838 2746.1 346.558 2743.24 348.811 2731.2C354.196 2711.7 354.912 2690.52 368.247 2674.09C392.231 2674.4 416.134 2668.3 440.104 2667.56L441.297 2664.8C455.475 2664.62 469.573 2662.11 483.03 2657.19C486.014 2658.6 489.831 2659.82 491.508 2655.29L499.513 2630.21C592.698 2333.06 695.988 2035.2 796.701 1740.23C802.58 1725.89 809.65 1710.65 818.844 1697.87C821.958 1878.35 859.689 2058.64 862.929 2239.03C867.308 2363.13 866.181 2485.92 877.83 2610.46C880.829 2636.82 884.016 2635.94 887.942 2634.32C889.516 2634.57 893.218 2635.36 894.825 2635.7C892.199 2661.89 889.177 2704.41 877.968 2731.2C853.19 2735.03 857.628 2754.08 863.123 2769.87C857.212 2774.93 858.053 2786.72 859.807 2793.25C836.494 2793.27 831.411 2812.27 833.015 2824.26C835.233 2844.32 833.992 2875.52 847.345 2892.65C855.209 2914.48 868.009 2935.09 873.009 2958.62C876.151 2975.93 874.938 3001.15 877.968 3018.32C870.344 3021.85 873.574 3027.38 872.289 3038.08C865.689 3087.08 888.919 3078.75 929.993 3082.13C954.612 3087.57 1142.03 3098.41 1133.94 3065.81C1135.32 3052.54 1129.16 3046.71 1126.52 3033.64C1125.33 3030.17 1101.98 2990.03 1088.05 2974.83C1041.34 2930.85 1043.38 2871.81 1044.86 2803.8C1042.11 2785.36 1027.96 2767.71 1009.91 2769.7C1015.09 2750.01 1005.48 2732.89 985.4 2727.2C987.406 2704.91 989.518 2674.62 996.861 2655.34L989.945 2648.29L999.203 2649.39L1002.28 2641.64L1005.63 2650.14C1021.52 2650.14 1039.46 2646.6 1054.68 2644.94C1057.11 2645.08 1056.03 2641.77 1056.43 2640.49C1070.8 2637.51 1072.38 2629.85 1069.84 2611.61C1073.19 2315.45 1071.73 2022.06 1067.16 1725.34C1089.63 1726.34 1111.54 1718.13 1133.62 1712.66C1141.46 1717.59 1143.69 1700.02 1142.77 1696.23C1141.52 1676.6 1139.1 1657.45 1136.92 1639.63Z" fill="white"/>
<path fill-rule="evenodd" clip-rule="evenodd" d="M675.466 639C678.806 641.642 678.457 648.966 678.785 653.066L678.808 653.334C679.86 665.719 678.438 678.161 675.424 690.185L675.169 691.186C673.651 697.086 672.308 704.461 667.583 708.595C662.466 713.072 654.337 710.174 654.151 702.954C654.059 699.599 655.176 696.369 656.591 693.222C646.677 697.054 636.763 700.846 626.807 704.544C620.448 757.236 693.914 821.748 736.447 844.333C798.388 878.687 850.505 826.067 858.433 764.208C859.766 755.992 860.658 747.547 860.832 739.216C860.976 732.257 859.562 722.545 864.217 716.593C860.92 716.515 857.991 716.979 854.763 717.486L854.918 717.755C856.748 721.031 859.333 729.185 853.543 729.806C841.04 728.487 835.225 706.527 832.177 695.994C830.195 688.824 827.462 659.063 833.51 655.557C835.332 662.626 834.616 670.302 836.832 677.391C841.877 679.427 851.482 679.978 853.707 680.353C879.688 680.654 894.419 699.341 904.949 721.215C935.82 746.602 980.193 742.239 1013.53 763.147C1115.53 837.233 1082.22 1125.65 1133.03 1248.35C1143.2 1244.13 1153.57 1252.57 1154.93 1262.88C1156.33 1270.81 1155.91 1279.29 1156.02 1287.32L1156.07 1288.32C1156.9 1304.75 1159.74 1323.2 1137.6 1323.56C1137.64 1332.73 1139.36 1341.61 1141.57 1350.46C1153.83 1404.02 1159.18 1459.2 1160.38 1514.12L1160.44 1518.15C1160.84 1547.02 1161.19 1636.31 1144.63 1646.88L1145.41 1653.17C1147.32 1668.9 1149.13 1684.67 1150.14 1700.48C1151.73 1708.68 1146.32 1728.35 1135.28 1723.14C1115.04 1728.16 1095.09 1735.55 1074.06 1735.59C1079.15 1905.44 1076.62 2075.46 1077.37 2245.38C1075.75 2370.63 1082.51 2496.92 1076.6 2621.69L1076.81 2623.45C1078.48 2637.46 1078.98 2649.64 1062.82 2654.44C1062.59 2657.87 1059.95 2659.7 1056.83 2660.1C1047.97 2661.3 1039.11 2662.43 1030.25 2663.52C1021.98 2664.14 1013.15 2666.19 1004.91 2665.21C1005.71 2666.02 1003.55 2666.14 1003.31 2665.56C995.805 2684.43 993.627 2705 991.768 2725.14C1009.99 2732.1 1019.93 2747.75 1016.96 2767.37C1035.34 2768.12 1048.77 2788.58 1051.35 2805.84C1053 2817.74 1051.67 2829.56 1051.14 2841.49C1048.6 2882.24 1054.58 2926.14 1080.83 2958.64L1081.93 2959.94C1098.81 2979.84 1120.22 2998.07 1127.5 3024.07C1129.52 3025.02 1131.18 3026.85 1131.91 3029.7L1136.63 3048.25L1138.97 3057.53C1140.69 3064.29 1142.22 3071.21 1141.3 3078.21L1141.2 3078.89C1136.6 3123.23 955.165 3101.86 919.754 3098.67C905.518 3096.44 889.9 3097.66 877.083 3090.1C861.362 3079.71 859.395 3058.62 862.094 3041.35L862.318 3039.73C863.411 3032 865.011 3023.91 872.326 3019.59C869.863 3003.58 870.816 2987.21 867.887 2971.26C863.463 2948.71 850.081 2929.13 843.249 2907.48C833.284 2896.37 832.948 2879.07 830.864 2864.87C829.285 2851.09 827.994 2837.23 827.461 2823.37C826.015 2805.05 833.949 2789.95 853.174 2787.55C852.282 2784.08 854.723 2781.08 857.152 2778.86C851.421 2758.47 849.839 2730.47 874.704 2723.51C884.121 2700.11 886.86 2674.75 889.365 2649.8C889.068 2649.74 888.771 2649.68 888.473 2649.63C876.088 2654.8 873.512 2630.32 872.684 2620.74C860.96 2496.54 862.039 2371.62 857.636 2247.04L857.205 2238.04C853.345 2155.96 851.048 2073.15 836.88 1992.17C822.622 1901.91 818.894 1810.17 814.02 1718.96C808.28 1727.9 805.193 1738.16 800.547 1747.69C740.266 1925.13 678.416 2102.04 618.821 2279.73C575.627 2408.38 534.36 2537.71 492.97 2666.96C490.858 2673.58 484.204 2674.95 479.334 2672.83C466.938 2677.14 453.928 2679.58 440.836 2680C440.047 2681.82 438.427 2683.15 436.058 2682.89C429.056 2682.12 420.997 2684.32 413.995 2685.14C397.972 2686.72 382.418 2689.18 366.249 2689.42C356.232 2702.1 355.601 2719.31 350.984 2734.41C348.325 2742.11 348.742 2759.38 339.561 2761.54C342.852 2766.62 343.283 2772.72 342.75 2779.01C345.605 2779.66 348.501 2780.89 351.188 2782.14C353.804 2783.47 357.259 2783.36 359.063 2786.03C410.343 2795.34 372.868 2892.91 363.954 2925.18C355.206 2951.56 352.466 2979.11 356.458 3006.65C362.561 3015.1 360.516 3027.66 361.45 3037.67C361.943 3046.6 362.845 3055.67 362.764 3064.61C361.768 3101.77 315.991 3095.72 290.164 3100.54C274.037 3102.42 257.838 3103.73 241.639 3104.75C200.555 3107.31 159.24 3107.5 118.24 3103.52C91.768 3102.68 86.0758 3085.38 86.1178 3061.72L86.0774 3060.74C85.4809 3044.67 88.0658 3025.28 103.291 3016.93C104.05 3008.44 108.346 2999.87 112.733 2992.45C133.134 2958.09 163.764 2927.97 169.788 2886.73C175.698 2859.73 169.002 2800.3 196.394 2786.23C197.029 2774.07 204.483 2761.68 213.711 2755.1C215.492 2744.98 222.202 2735.67 226.352 2726.36C234.819 2708.6 242.651 2690.55 251.072 2672.76C246.663 2670.9 241.977 2667.46 241.362 2662.58C237.128 2662.63 232.945 2659.88 233.457 2654.72C234.953 2639.73 238.226 2625 241.316 2610.27L241.702 2608.43C296.69 2342.1 410.242 2093.05 476.679 1830.13C467.74 1831.75 459.383 1821.51 454.441 1814.84C438.478 1793.3 429.05 1767.25 424.904 1740.81L417.4 1739.88C392.376 1736.8 367.23 1734.1 341.997 1734.83L335.916 1735.03C329.159 1735.24 322.392 1735.18 315.97 1732.75C311.49 1733.16 306.825 1730.75 305.719 1725.72C287.029 1632.39 332.967 1543.83 365.869 1459.5C373.62 1438.77 379.136 1417.73 384.397 1396.26C384.57 1395.57 385.657 1395.71 385.626 1396.43C384.601 1420.3 378.695 1444.37 372.697 1467.37C353 1545.39 311.966 1621.89 321.999 1704.48C353.184 1679.88 390.222 1662.78 429.128 1655.55C431.373 1645.78 433.854 1636.07 435.72 1626.24C433.885 1611.11 432.634 1595.92 431.035 1580.72C426.257 1535.27 418.958 1489.93 409.228 1445.27C394.135 1400.34 380.957 1354.8 376.245 1307.42L375.387 1307.59C364.922 1309.72 353.393 1314.34 343.684 1307.66C337.521 1303.38 334.855 1296.29 332.365 1289.47C325.254 1272.95 323.938 1251.24 344.062 1244.33C336.56 1191.8 341.435 1136.97 350.501 1084.94C357.763 1039.33 373.69 994.391 367.727 947.699C361.107 902.831 348.766 855.838 366.608 811.918C395.929 738.619 470.183 703.843 543.208 692.65L544.391 692.302C553.425 689.622 561.651 686.797 571.064 688.828C593.266 647.548 629.273 664.337 664.434 673.538C666.808 666.538 668.787 659.377 670.647 652.222C671.806 648.577 671.423 640.168 675.466 639ZM878.98 3039.61L878.888 3041.41C877.958 3060.74 879.006 3077.3 902.92 3077.17C919.376 3078.93 935.834 3080.65 952.317 3082.14L958.499 3082.69C1007.42 3087.06 1056.93 3089.2 1105.75 3082.63L1107.79 3082.36C1111.87 3081.77 1119.42 3081.89 1122.65 3078.87C1126.55 3073.61 1122.04 3063.6 1121.09 3057.51C1044.91 3056.62 968.625 3053.81 892.39 3054.78C884.372 3054.82 880.753 3047.95 881.491 3041.7C880.589 3041.09 879.738 3040.38 878.98 3039.61ZM105.475 3029.92C101.729 3043.12 102.652 3055.59 104.768 3068.81C105.826 3082.65 112.397 3083.54 124.288 3083.86C170.708 3088.15 217.464 3087.25 263.897 3083.66C288.783 3080.97 314.358 3081.07 338.782 3075.55C350.434 3070.38 343.707 3054.11 344.103 3044.13C289.253 3079.55 206.298 3075.05 146.485 3054.56L145.526 3054.15C131.378 3048.19 113.29 3044.44 105.475 3029.92ZM196.333 2791.61C189.771 2799.02 189.895 2820.7 189.598 2826.71C188.89 2841.23 189.002 2855.77 188.375 2870.28C188.837 2931.39 153.621 2961.86 127.467 3011C120.314 3022.92 130.721 3024.61 139.185 3028.48C193.996 3054.04 258.83 3057.94 316.092 3038.38C344.875 3029.99 338.59 3010.58 336.147 2986.84C333.741 2938.33 359.216 2894.62 366.752 2847.7L367.025 2846.05C369.279 2831.98 372.859 2797.47 351.177 2804.94C346.41 2807.88 341.93 2804.2 341.366 2799.69C340.799 2799.78 340.215 2799.83 339.654 2799.84C337.121 2815.53 334.496 2831.19 331.974 2846.88C334.097 2848.23 336.086 2849.75 337.849 2851.5C339.992 2853.63 338.495 2858.09 335.265 2857.82C333.606 2857.68 331.964 2857.43 330.334 2857.12C329.041 2870.75 307.432 2863.1 313.674 2852.17C282.602 2841.42 248.371 2842.27 216.818 2850.52L216.687 2850.58C214.244 2851.55 196.681 2855.08 202.331 2857.82C204.686 2858.11 199.324 2861.2 198.383 2856.42C198.08 2850.43 211.732 2847.48 215.915 2845C205.365 2829.87 198.157 2810.26 196.333 2791.61ZM992.342 2743.7C963.073 2727.82 927.102 2733.71 895.353 2736.52L894.02 2736.67C885.94 2737.54 874.68 2738.08 870.971 2746.42C865.602 2759.78 874.502 2789.67 877.298 2804.53L878.566 2809.72C880.766 2818.8 882.805 2827.82 883.562 2837.21C883.583 2837.52 883.286 2837.74 883.009 2837.74C871.888 2825.83 866.89 2809.82 861.695 2794.55C859.479 2795.81 857.316 2797.18 855.276 2798.69C847.306 2826.14 844.638 2855.36 850.948 2883.36L851.175 2884.34C858.971 2918.94 883.244 2947.24 885.551 2983.4C887.093 2998.01 886.749 3012.99 890.944 3027.19C893.331 3027.72 895.412 3029.48 896.347 3031.7L910.031 3031.71C976.169 3031.83 1042.33 3032.43 1108.42 3035.16C1106.29 3016.53 1089.89 3000.01 1078.33 2987.24C1042.88 2950.85 1027.54 2898.59 1033.38 2848.22C1036.46 2823.02 1050.49 2783.42 1016.16 2774.11C1013.65 2794.65 1010.26 2815.12 1008.39 2835.74C1014.87 2838.87 1014.47 2847.13 1006.55 2846.97C1003 2858.95 991.087 2854.11 992.374 2842.8C948.803 2826.68 923.805 2821.27 881.358 2845.57C880.17 2845.39 884.619 2840.62 885.182 2839.77C898.596 2825.28 919.198 2818.46 938.527 2818.22C957.686 2818.21 975.704 2825.45 993.778 2831.05C996.495 2811.59 998.325 2792.01 1000.48 2772.49L1000.94 2768.31C1002.07 2758.05 1001.66 2749.59 992.342 2743.7ZM292.133 2994.96C298.51 2993.53 304.374 2991.37 310.854 2992.84C333.656 3010 240.488 3014.84 232.555 3013.62C212.361 3013.03 192.158 3010.46 172.723 3004.74L171.228 3004.3C168.665 3003.58 150.157 2998.35 153.755 2995.98C180.042 2998.32 205.775 3003.15 232.555 3001.9C245.914 3001.62 259.325 3000.67 272.54 2998.65C279.112 2997.65 285.653 2996.42 292.133 2994.96ZM908.107 2973.69C903.932 2967.42 924.284 2975.75 926.931 2975.82C943.784 2979.99 960.935 2983.14 978.245 2984.46C989.851 2985.34 1001.58 2985.53 1013.21 2984.95C1021.82 2984.66 1030.33 2983.38 1038.89 2982.5L1039.2 2982.49C1044.28 2982.31 1054.47 2985.47 1048.19 2991.53C1038.43 2999.12 1023.98 2996.8 1012.28 2997.92C976.753 2997.8 939.13 2992.07 908.107 2973.69ZM240.143 2928.13C250.386 2926.27 306.764 2925.66 301.145 2943C299.781 2946.29 296.664 2947.38 293.384 2946.87C258.49 2938.36 220.851 2933.91 186.07 2945.64C185.506 2945.84 185.117 2944.91 185.67 2944.66C202.771 2936.07 221.069 2930.07 240.143 2928.13ZM971.95 2911.17C981.154 2910.47 990.414 2910.72 999.624 2911.41L1002.62 2911.65C1006.75 2911.97 1011 2912.35 1014.96 2913.56L1015.7 2913.79C1020.76 2915.43 1032.15 2924.13 1023.5 2928.32C1014.21 2931.34 1006.36 2927.75 997.397 2925.44C972.419 2919.51 946.163 2921.52 921.415 2927.59L924.901 2928.71C925.116 2928.55 925.393 2928.92 925.188 2929.09C922.687 2931.28 919.252 2930.5 917.478 2927.78C917.171 2927.32 917.365 2926.57 917.858 2926.31C934.631 2917.49 953.126 2912.61 971.95 2911.17ZM193.995 2908.96C222.204 2896.45 254.887 2895.07 285.14 2898.69L287.295 2898.96C296.733 2900.07 309.042 2900.58 314.443 2909.39C316.309 2912.44 314.381 2915.94 311.367 2917.04C302.488 2920.29 292.051 2913.78 283.521 2911.36C258.299 2904.44 231.361 2903.71 205.714 2908.49C205.893 2909.45 201.646 2909.03 200.721 2909.37C199.562 2909.3 191.868 2911.85 193.995 2908.96ZM905.36 2889.42C929.969 2877.43 958.422 2874.57 984.991 2880.76L986.096 2881.08C997.868 2884.39 1016.82 2888.3 1021.04 2900.79C1021.95 2903.6 1019.97 2907.4 1017.01 2907.97C1006.97 2909.9 997.858 2902.55 988.775 2899.02C962.049 2888.95 931.797 2886.55 904.16 2893.95C903.976 2895.04 903.791 2896.12 903.596 2897.21C904.068 2896.9 904.56 2897.6 904.181 2897.98C899.77 2901.08 895.182 2893.26 905.36 2889.42ZM257.407 2868.34C277.32 2867.01 297.399 2869.55 316.622 2874.81L320.237 2875.81C325.491 2877.29 332.297 2879.61 333.061 2885.3C333.358 2887.56 332.795 2889.12 330.959 2890.52C324.267 2895.54 309.712 2885.03 301.392 2883.79C271.185 2874.7 238.76 2874.83 208.161 2881.79L207.119 2882.03L207.857 2887.29C208.583 2889.81 201.856 2883.87 204.412 2881.17C220.565 2872.93 239.413 2869.82 257.407 2868.34ZM924.132 2858.93C940.113 2856.03 956.599 2855.48 972.757 2856.94L974.666 2857.12C984.315 2857.97 1015.58 2859.22 1008.18 2875.57C1006.94 2878.3 1003.34 2878.65 1001.02 2877.47C993.203 2873.5 984.663 2872.07 976.04 2870.76C945.596 2866.51 914.493 2868.25 884.772 2876.47C885.418 2877.49 884.085 2878.69 882.824 2878.93C879.687 2879.51 879.687 2875.76 881.03 2873.77C882.63 2871.41 885.818 2870.55 888.279 2869.51C899.724 2864.51 911.861 2861.13 924.132 2858.93ZM318.851 2767.96L317.031 2767.53C286.535 2760.34 218.919 2747.44 211.917 2789.55C209.432 2808.09 217.63 2826.18 217.024 2844.55C248.648 2831.66 283.618 2831.79 316.473 2840.31C319.384 2821.25 322.163 2802.17 325.136 2783.12L325.616 2780.84C326.939 2774.42 327.389 2769.39 318.851 2767.96ZM250.928 2775.63C257.574 2769.92 268.656 2770 275.175 2776.23C281.136 2777.49 285.342 2783.83 285.438 2789.27C294.502 2805.24 283.571 2827.3 266.266 2831.29C227.19 2839.54 209.721 2785.74 250.928 2775.63ZM927.946 2750.15C960.641 2744.3 972.518 2785.87 945.684 2802.73C907.776 2821.79 882.518 2761.87 927.946 2750.15ZM267.106 2657.81C267.587 2660.99 266.029 2663.25 264.164 2665.39C257.461 2692.93 247.372 2718.56 237.425 2744.97C269.785 2739.59 300.36 2744.28 328.992 2753.09C329.334 2745.03 332.998 2736.68 335.542 2729.08C340.498 2714.66 346.487 2700.61 353.395 2687.04L354.263 2685.34C356.745 2680.51 359.133 2675.47 362.066 2670.84C330.394 2666.51 298.723 2662.6 267.106 2657.81ZM904.96 2651.94L904.117 2655.77C900.482 2672.4 897.031 2689.18 891.621 2705.33L891.547 2705.66C890.719 2709.74 888.856 2728.61 887.684 2715.29C886.782 2717.3 885.818 2719.28 884.793 2721.23L890.387 2720.56C920.318 2717 951.664 2713.92 981.085 2721.47C978.109 2698.35 982.489 2676.27 988.887 2654.41C960.848 2653.76 933.059 2653.97 904.96 2651.94ZM373.989 2680.67C372.964 2681.64 371.959 2682.62 371.006 2683.65C372.298 2683.32 373.591 2683 374.789 2682.72C374.74 2681.96 374.206 2681.39 373.989 2680.67ZM1005.83 2659.47L1005.22 2660.91C1005.12 2661.15 1005.02 2661.38 1004.92 2661.62C1005.39 2661.34 1005.92 2661.07 1006.48 2660.83C1006.22 2660.41 1006.01 2659.97 1005.83 2659.47ZM493.657 1291.56C490.787 1292.95 487.793 1293.3 483.835 1293.47C451.681 1294.81 419.63 1298.54 388.056 1304.91C389.799 1330.51 397.57 1355.32 404.965 1379.73L406.499 1385.08C431.487 1472.54 453.298 1563.93 448.905 1655.42C449.151 1655.51 449.387 1655.63 449.612 1655.75C449.213 1656.87 448.927 1658.02 448.526 1659.13L448.269 1659.79L446.769 1663.52C445.939 1665.6 445.134 1667.68 444.435 1669.81C443.208 1670.26 441.699 1670.58 440.262 1670.79C432.967 1719.22 439.903 1773.53 472.773 1811.4C459.132 1782.8 453.894 1747.23 459.517 1715.99C462.569 1719.31 462.787 1726.95 463.956 1731.91C467.165 1748.86 469.417 1766.05 474.238 1782.65L474.761 1784.31C480.166 1801.31 489.21 1823.23 504.885 1832.01C507.842 1832.9 512.415 1831.79 513.814 1835.43C514.622 1838.67 513.116 1842.68 509.794 1843.69L509.559 1843.76C500.014 1846.47 491.914 1839.26 485.794 1831.66L485.488 1835.63C484.9 1843.14 484.08 1850.36 479.724 1856.54C479.211 1858.69 478.709 1860.85 478.188 1863.01C466.398 1935.92 448.663 2011.3 416.373 2077.12L412.618 2088.47C351.233 2273.81 287.658 2459.04 250.661 2651.35C289.535 2647.24 328.735 2649.23 367.53 2653.09C404.114 2656.9 442.81 2667.04 477.858 2650.85C572.813 2360.09 670.764 2070.19 778.115 1783.86C791.054 1738.42 815.355 1694.59 827.377 1648L828.13 1645.54C830.956 1636.2 832.282 1630.14 830.208 1619.7L830.12 1618.43C829.692 1611.9 829.542 1602 836.975 1600.19C838.236 1599.87 839.887 1600.11 840.759 1601.2C845.355 1607.11 841.052 1614.64 842.377 1621.5C846.236 1647.75 835.901 1672.5 823.821 1695.14C824.61 1696.09 825.154 1697.27 825.246 1698.55C826.302 1712.5 826.169 1726.6 826.775 1740.58C828.494 1780.78 830.995 1820.94 834.166 1861.05C844.094 1934.51 858.169 2007.21 865.816 2080.99C883.227 2252.84 880.096 2426.01 892.74 2598.21C892.841 2613.33 897.577 2629.05 892.779 2643.73C895.804 2641.74 900.101 2642.18 902.755 2644.59C954.297 2641.02 1005.92 2642.77 1057.45 2639.7C1057.5 2637.38 1057.67 2635.2 1057.76 2633.53C1056.32 2630.09 1058.72 2626.28 1058.65 2622.63C1052.36 2586.89 1057.53 2548.49 1056.24 2511.95C1056.3 2477.37 1056.47 2442.8 1056.71 2408.22C1058.66 2192.14 1056.04 1976.01 1059.98 1759.95C1060.29 1749.33 1060.77 1738.73 1061.45 1728.14C1058.62 1724.97 1060.51 1720.48 1060.51 1716.68L1060.68 1713.3C1061.54 1696.22 1062.52 1680.53 1055.88 1663.7C1056.03 1661.7 1056.49 1659.82 1057.54 1658.28C1026.46 1643.67 994.008 1632.61 961.923 1620.58C956.509 1621.92 949.732 1618.54 948.594 1612.7C936.507 1550.52 926.982 1487.95 918.749 1425.16C864.874 1460.62 799.185 1466.23 738.007 1480.6L726.428 1483.61C697.874 1491.06 667.923 1499.75 646.205 1520.08C644.01 1552.17 660.321 1644.66 611.306 1642.24C595.248 1647.16 578.742 1651.1 562.309 1653.22C581.442 1689.63 616.344 1738.14 588.75 1778.45C584.747 1782.7 579.367 1778.39 575.709 1775.75C576.162 1799.32 576.79 1822.77 576.816 1846.32C576.816 1849.46 573.586 1852.3 570.47 1851.23C552.795 1845.12 550.61 1823.91 547.873 1807.9C545.423 1793.61 542.962 1779.31 540.542 1765.01C539 1790.68 545.161 1817.1 540.143 1842.47C535.326 1856.98 520.359 1852.66 515.873 1840.49L515.74 1840.12C506.868 1815.46 502.546 1789.12 500.752 1763L500.657 1761.47C500.14 1753.54 499.299 1745.15 501.255 1737.47C505.223 1744.95 504.236 1757.16 506.083 1766.21C509.18 1785.54 513.367 1804.75 519.249 1823.42L519.402 1824.08C522.06 1835.03 532.472 1856.37 532.352 1829.56C532.75 1815.94 531.582 1802.36 530.843 1788.77L530.741 1786.82C529.777 1768.26 529.88 1749.52 535.437 1731.63C536.851 1727.05 544.541 1726.18 545.474 1731.63C549.207 1753.4 552.774 1775.19 556.341 1796.98C558.943 1810.29 558.835 1825.31 566.738 1836.79C566.83 1811.72 565.444 1786.73 564.246 1761.7L564.007 1760.92C563.034 1757.73 561.981 1753.47 564.215 1750.71C565.087 1744.99 573.412 1745.65 574.119 1751.63C574.273 1752.88 574.386 1754.15 574.509 1755.4C577.267 1758.87 579.83 1762.41 583.09 1765.4C604.86 1720.83 533.634 1643.87 523.801 1593.55C494.84 1495.55 511.491 1392.8 519.914 1293C511.204 1291.97 502.421 1291.69 493.657 1291.56ZM249.78 2654.75C249.449 2655.99 249.196 2657.34 248.6 2658.46C249.072 2658.54 249.554 2658.64 250.036 2658.74C250.62 2657.56 251.235 2656.41 251.902 2655.27C251.194 2655.11 250.487 2654.94 249.78 2654.75ZM611.326 2195.78C612.239 2195.63 612.608 2196.89 611.716 2197.18C581.707 2207.19 556.414 2225.8 531.121 2244.27C527.532 2246.89 524.18 2241.42 526.691 2238.46C537.27 2226.04 550.225 2217.47 564.647 2210.26L565.497 2209.84C579.925 2202.55 595.402 2197.91 611.326 2195.78ZM898.696 2177.18C898.347 2176.5 899.27 2175.98 899.69 2176.59C906.375 2186.03 915.223 2194.82 924.009 2202.23C932.908 2209.75 942.618 2215.69 952.142 2222.29C957.279 2225.84 952.87 2233.41 947.293 2230.69C936.445 2225.41 926.706 2216.67 918.739 2207.58C910.527 2198.2 904.447 2188.17 898.696 2177.18ZM712.375 1849.86C679.255 1905.65 630.353 1961.84 593.856 2019.05C569.209 2055.73 546.914 2093.98 519.904 2129C514.501 2136.38 504.084 2130.22 507.785 2121.82C518.058 2098.58 529.511 2076.24 543.299 2054.94L547.747 2048.32C595.765 1976.99 646.659 1905.51 712.375 1849.86ZM850.354 1764.72C850.068 1763.79 851.426 1763.38 851.793 1764.2L851.831 1764.3C876.694 1832.66 915.025 1894.79 948.564 1958.89C951.158 1964.14 944.247 1970.46 940.116 1965.5C916.442 1937.03 899.844 1903.56 885.122 1869.67C869.598 1836.09 860.075 1800.31 850.354 1764.72ZM908.128 727.541C923.353 758.184 934.528 790.613 942.269 823.987C944.654 834.291 930.871 840.614 925.303 831.587L925.137 831.309C918.289 819.854 908.085 809.765 895.168 805.82C886.368 842.816 890.656 881.913 895.229 919.269C903.336 971.315 909.789 1023.58 910.754 1076.32L910.8 1079.15C913.626 1259.26 940.023 1438.56 968.936 1614.9C1015.16 1622.35 1057.47 1643.35 1100.08 1661.81C1107.48 1664.71 1115.04 1667.24 1122.8 1668.98C1101.39 1469.05 1019.98 1281.56 994.824 1082.36C988.174 1030.55 987.864 977.944 997.048 926.437C997.203 925.45 998.596 925.782 998.658 926.655C999.667 947.812 1003.28 968.694 1005.41 989.737C1006.87 977.718 1010.23 965.545 1012.95 954.025C1016.27 942.756 1017.5 924.663 1027.23 917.316L1027.85 915.187C1028.1 914.273 1029.46 914.657 1029.24 915.571C1029.14 916.008 1029.04 916.434 1028.94 916.87C1035.2 918.537 1029.36 925.972 1027.81 929.532C1017.77 956.532 1014.79 985.757 1007.94 1013.59C1017.85 1100.46 1035.7 1186.23 1057.68 1270.67C1077.88 1265.33 1098.15 1260.18 1118.4 1254.95C1073.23 1107.28 1099.64 942.475 1031.97 801.468C1006.61 754.147 944.173 760.576 908.128 727.541ZM564.954 700.545C555.48 700.036 545.587 705.198 536.493 706.974C524.436 709.322 512.44 711.181 500.651 714.787C440.298 731.399 382.072 776.767 371.139 842.133C363.624 887.017 382.232 930.747 381.578 975.506C379.615 1019.85 365.053 1062.47 359.379 1106.36C352.553 1151.25 350.204 1198.24 356.058 1243.34C410.197 1227.92 466.737 1226.95 522.253 1234.92C517.623 1166.55 523.698 1097.85 527.06 1029.53C529.48 985.654 533.622 941.581 532.156 897.622C532.125 896.646 533.704 896.407 533.856 897.383C550.506 987.166 540.739 1078.31 539.058 1168.85C537.989 1191.73 540.811 1214.83 539.671 1237.58C564.911 1243.03 563.998 1272.59 556.28 1292.07C554.912 1296.76 550.268 1295.94 546.509 1295.37C542.437 1299.67 532.721 1294.06 527.183 1294.06C522.848 1406.45 496.515 1526.5 550.477 1631.55C573.038 1631.67 594.755 1623.86 616.681 1619.42L617.877 1619.18L617.908 1619.17C621.131 1614.96 622.707 1608.19 623.138 1603.23C626.203 1516.68 616.612 1429.92 622.224 1343.36C629.095 1247.28 650.439 1151.78 640.566 1055.05C633.741 968.597 615.003 883.709 605.971 797.513L605.513 793.054C604.95 787.739 604.738 781.868 602.119 777.815C586.883 791.757 574.097 808.335 564.944 826.988C559.876 835.998 546.299 831.988 546.09 821.816C544.138 803.653 543.849 785.422 545.827 767.255L546.007 765.652C548.458 742.911 555.301 721.206 564.954 700.545ZM1131.4 1324.31C1111.77 1325.35 1092.13 1327.54 1072.47 1327.28L1074.45 1334.74C1098.24 1424.22 1123.58 1513.54 1138.52 1605.1L1139.07 1596.51C1139.61 1587.93 1140.12 1579.34 1140.46 1570.73C1144.7 1488.44 1138.23 1406.27 1131.4 1324.31ZM1073.98 1324.39L1071.66 1324.28L1071.8 1324.79C1072.28 1324.69 1072.77 1324.6 1073.25 1324.52L1073.98 1324.39ZM1137.94 1263.96C1137.57 1263.85 1136.94 1263.85 1136.25 1263.88C1135.24 1266.2 1133.21 1268.13 1130.85 1268.76L1111.18 1274.1C1094.79 1278.55 1078.38 1282.97 1061.96 1287.28C1064.72 1297.96 1067.52 1308.64 1070.34 1319.3C1092.75 1312.04 1117.55 1313.69 1140.39 1309.01C1140.11 1296.68 1139.44 1284.3 1139.23 1271.95C1139.18 1269.93 1139.59 1266.69 1138.56 1264.88C1137.92 1263.73 1138.56 1264.16 1137.94 1263.96ZM385.422 1305.45L384.806 1305.58C385.011 1306.14 385.195 1306.7 385.37 1307.28C385.381 1306.66 385.39 1306.06 385.422 1305.45ZM531.265 1246.14C489.058 1239.95 446.136 1236.29 403.568 1240.5C384.314 1243.13 364.768 1245.93 345.897 1249.51C339.336 1259.66 346.596 1284.35 354.766 1292.16C357.216 1293.1 361.43 1291.28 363.778 1290.75C381.394 1286.74 399.183 1283.52 417.06 1281C417.594 1281.67 418.373 1282.11 419.336 1282.01L423.444 1281.63C448.101 1279.37 472.977 1277.71 497.688 1279.13L497.871 1279.27C514.543 1280.5 531.157 1283.14 547.76 1285.06C554.315 1267.79 553.185 1247.99 531.265 1246.14ZM838.359 683.115C839.99 688.678 841.95 694.085 844.387 699.34C846.932 698.63 850.442 699.199 852.313 700.815L853.108 700.67C855.297 700.251 857.924 699.611 858.608 699.537C888.765 695.332 886.467 735.98 886.577 756.407C886.761 766.649 886.966 776.901 887.274 787.143C895.903 784.182 907.444 789.505 914.987 794.217C909.081 774.408 902.14 754.922 894.399 735.778L892.638 731.301C886.616 716.1 879.874 700.791 867.128 690.209C857.277 687.613 847.734 687.142 838.359 683.115ZM619.714 672.917C591.684 662.844 580.582 685.734 572.807 708.564C563.641 733.846 561.14 761.684 562.667 788.888L563.611 787.63C573.924 773.779 588.793 750.915 607.594 754.59C607.411 744.08 607.788 732.534 609.788 721.62C608.619 714.578 608.322 707.462 609.133 700.347C609.562 691.426 619.206 692.779 625.557 691.518C631.052 687.831 637.706 686.345 644.391 688.942C649.435 688.267 654.479 687.623 659.523 686.979C660.297 685.265 660.923 683.543 661.574 681.785C647.613 678.878 633.656 675.881 619.714 672.917Z" fill="black"/>
<path fill-rule="evenodd" clip-rule="evenodd" d="M955.405 323.845C955.069 311.887 937.676 306.922 932.651 318.765C932.339 319.082 932 319.387 931.682 319.66C933.255 318.311 929.966 320.543 929.431 320.819C928.973 321.055 928.505 321.268 928.038 321.488C924.806 291.194 913.834 258.536 885.482 243.33C845.938 224.154 800.245 220.411 756.862 222.316C734.885 223.62 709.507 227.134 689.982 216.016C683.898 212.552 679.021 207.099 672.146 204.958C650.443 199.087 640.599 221.373 643.555 239.7C634.298 239.773 625.115 244.898 621.12 253.336C618.774 258.33 618.815 263.719 616.792 268.731C610.585 281.441 601.704 290.577 606.725 305.987C597.894 316.036 602.929 331.249 610.055 340.87C613.574 345.874 617.765 350.678 620.343 356.279C622.845 361.642 619.068 368.002 616.966 373.086C601.426 409.935 602.314 450.516 610.676 488.952C593.896 496.233 588.86 518.993 599.802 533.324C603.567 538.39 608.16 540.27 613.369 543.387C619.961 547.015 614.577 561.547 616.688 568.565C619.556 585.698 635.156 596.249 650.581 585.123C660.369 583.642 668.264 612.121 675.372 619.269C679.751 625.029 684.613 630.201 689.899 634.974C705.649 675.499 786.355 696.049 826.257 693.703C868.042 689.328 896.231 653.842 919.703 622.348C931.756 605.567 939.595 586.785 942.446 566.3C945.31 545.712 944.057 525.087 942.121 504.474C938.054 460.678 931.638 397.582 927.495 353.313C942.467 352.08 955.859 339.333 955.405 323.845Z" fill="white"/>
<path fill-rule="evenodd" clip-rule="evenodd" d="M629.018 297.514C629.004 297.576 629.025 297.623 629.039 297.689C629.042 297.67 629.045 297.66 629.05 297.637C629.038 297.587 629.029 297.554 629.018 297.514Z" fill="#4F66AF"/>
<path fill-rule="evenodd" clip-rule="evenodd" d="M629.014 298.151C628.959 298.093 628.881 298.05 628.803 297.992C628.801 297.994 628.8 297.996 628.799 297.998C628.872 298.046 628.942 298.101 629.014 298.151Z" fill="#4F66AF"/>
<path fill-rule="evenodd" clip-rule="evenodd" d="M953.024 329.505C957.942 325.419 965.689 329.181 964.023 335.908C962.21 343.234 954.358 348.24 947.876 351.25C941.204 354.347 934.705 354.944 927.426 354.606L927.336 354.586C929.357 362.689 930.503 371.112 932.049 379.264C934.011 389.606 935.941 399.953 937.842 410.305C939.681 420.311 942.006 430.33 943.419 440.386C944.844 450.537 946.212 460.695 947.612 470.849C949.948 487.808 951.834 504.844 953.823 521.852L954.77 529.903C956.762 546.942 958.365 564.003 954.591 580.96C951.054 596.852 943.086 611.676 933.844 624.942C924.793 637.932 914.682 650.422 903.583 661.721C882.174 683.512 855.774 700.965 824.818 704.202C811.489 705.596 797.253 704.045 784.722 699.2L783.89 698.875C771.205 693.866 755.671 685.291 752.37 671.22C750.343 662.588 759.238 655.849 767.037 659.945C770.65 661.843 773.367 664.012 776.333 666.731L776.86 667.217C779.284 669.468 780.217 670.16 783.014 671.921C788.751 675.53 793.051 677.238 799.567 678.878C811.581 681.9 824.547 681.422 836.743 677.848C862.637 670.26 882.725 650.46 899.934 630.607C909.278 619.826 918.147 608.517 924.987 595.952C932.164 582.769 935.477 568.928 935.278 553.928C935.053 537.003 932.714 520.012 931.179 503.167C929.615 485.994 928.169 468.827 926.895 451.63C925.701 435.503 925.586 419.303 925.169 403.126L925.087 400.093C924.842 391.505 924.672 382.914 924.477 374.324C924.284 365.759 923.606 357.085 924.488 348.556C924.551 347.935 925.388 347.778 925.592 348.406C926.112 350.004 926.567 351.627 926.997 353.259C927.063 353.209 927.137 353.164 927.227 353.133C932.931 351.173 938.184 347.26 942.464 343.04C946.548 339.013 948.681 333.114 953.024 329.505ZM640.947 209.507C644.53 194.791 660.654 191.504 672.577 198.591C678.312 201.999 682.904 206.914 688.261 210.82C693.587 214.704 699.473 217.823 705.684 220.026C718.023 224.402 731.039 225.993 744.08 226.05C775.82 226.189 806.911 217.269 838.698 218.264C863.294 219.034 889.4 226.303 907.241 244.083C916.852 253.661 923.045 265.975 926.367 279.048C927.92 285.158 929.077 291.416 929.99 297.66L930.213 299.22C930.724 302.869 931.544 306.732 931.62 310.42C931.689 313.732 930.851 317.198 930.397 320.476C929.44 327.386 918.737 326.599 917.199 320.476C913.697 306.535 915.163 292.147 910.883 278.254C907.088 265.934 899.733 255.162 889.076 247.795C844.117 216.715 786.462 242.742 736.926 240.324C724.819 239.733 712.534 237.862 701.114 233.693C695.225 231.543 689.427 228.921 684.088 225.623C679.196 222.603 674.958 218.809 670.43 215.318L668.432 213.8C665.328 211.464 660.043 207.813 656.911 210.902C655.548 212.247 655.466 215.288 655.491 217.61L655.506 218.659C655.648 228.517 657.657 238.357 653.968 247.881C652.285 252.225 647.608 254.964 643.16 252.504L642.93 252.372C633.521 246.775 621.159 258.022 628.387 267.331L628.612 267.612C632.679 272.554 630.51 281.257 623.232 281.236L622.97 281.231C610.002 280.826 604.248 297.033 615.426 304.114L615.77 304.326C624.845 309.757 616.885 322.814 607.584 318.331C608.372 318.711 607.002 318.706 606.218 319.758C605.465 320.768 605.409 321.642 605.588 322.918C606.131 326.784 609.531 330.042 612.285 332.488C618.541 338.045 626.296 341.882 634.287 344.218C666.297 353.576 699.137 342.129 730.325 335.216C762.84 328.009 799.564 325.106 827.92 345.557C828.257 345.799 827.962 346.34 827.589 346.124C807.239 334.306 782.315 335.355 760.07 340.2C730.9 346.554 701.985 358.381 672.11 361.497C680.497 376.303 684.007 393.79 681.767 410.725C680.225 422.383 675.585 432.495 670.105 442.742L669.06 444.695C664.174 453.893 660.389 462.582 660.329 473.238C660.27 483.825 644.531 486.057 641.863 475.738C635.806 452.303 657.872 433.844 666.875 414.519C674.57 397.999 674.807 378.738 668.58 361.823C661.554 362.388 654.473 362.447 647.321 361.809C641.178 361.26 634.858 360.153 628.698 358.401L626.234 368.761C622.969 382.56 619.944 396.35 619.027 410.683C618.352 421.215 618.388 431.799 619.415 442.305C620.303 451.379 622.177 460.13 624.084 468.989C625.72 471.147 626.556 474.45 626.096 477.081C636.716 480.139 645.069 488.519 648.121 499.618C648.307 500.294 647.361 500.674 647.007 500.088C639.766 488.074 621.12 483.653 609.325 491.59C598.061 499.168 593.618 514.468 599.994 526.58C603.348 532.949 608.32 537.424 614.732 540.506L616.021 541.111C619.381 542.701 622.465 544.434 624.626 547.627C627.429 551.769 627.523 556.148 627.259 560.881L627.144 562.799C626.967 565.971 626.927 569.237 627.872 572.289L628.087 572.967C628.336 573.729 628.598 574.4 629.053 575.127C629.189 575.343 630.465 576.595 630.881 577.048L631.405 577.206L631.991 577.23C632.641 577.24 633.495 576.958 633.215 577.154L633.291 577.11C633.538 576.956 633.765 576.794 633.956 576.65L634.319 576.366C635.168 575.139 636.232 574.125 637.537 573.352L638.784 572.797C642.023 569.377 647.573 571.174 649.895 574.581C651.566 577.031 652.465 579.522 652.539 581.979C652.8 581.56 653.38 581.331 653.749 581.8L655.951 584.606C664.374 595.368 672.652 606.198 682.224 616.009C687.497 621.415 693.169 626.495 699.098 631.174C704.16 635.169 713.762 639.013 713.909 646.29C713.955 648.652 712.278 650.325 710.226 651.127C703.547 653.736 695.295 644.862 690.471 640.544L690.077 640.195C684.173 635.024 678.785 629.348 673.813 623.278C664.156 611.487 656.081 597.916 652.522 582.987C652.355 585.592 651.237 588.145 649.061 590.554C646.164 593.76 642.199 596.008 637.964 596.934C628.369 599.031 619.001 595.578 613.292 587.583C608.467 580.824 607.046 571.899 607.668 563.733L607.745 562.753C607.833 561.444 607.944 559.041 608.283 558.018L605.262 556.359C601.558 554.388 598.125 551.804 595.044 548.964C582.661 537.548 576.448 518.995 582.109 502.76C585.65 492.604 593.091 483.767 602.619 479.174C601.026 475.494 600.494 471.123 599.893 467.256L599.792 466.616C598.773 460.272 597.92 453.848 597.595 447.428C596.987 435.438 597.726 423.336 599.61 411.485C602.67 392.236 609.005 371.822 620.617 355.674C611.758 352.156 603.604 347.063 597.31 339.991C590.733 332.601 586.54 322.021 591.626 312.636C592.922 310.244 594.611 308.233 596.552 306.636C593.186 300.28 592.097 292.768 594.174 285.588C596.656 277.004 603.395 270.309 611.536 267.183C609.559 259.05 611.175 250.302 617.216 243.524C623.208 236.8 632.513 234.351 641.125 235.888C641.592 227.238 638.869 218.038 640.947 209.507ZM616.792 513.207C624.688 509.343 634.046 509.957 641.933 513.619L642.467 513.873C651.078 518.048 662.483 527.804 659.746 538.18C658.144 544.248 651.402 546.32 646.174 543.701C641.807 541.512 640.811 537.599 638.62 533.668C637.071 530.888 635.156 528.715 632.907 526.48C628.166 521.771 622.841 518.273 616.792 515.474C615.92 515.07 615.95 513.62 616.792 513.207ZM815.746 303.478C815.006 303.14 815.543 301.981 816.288 302.193C836.129 307.859 854.628 320.577 865.682 338.23C866.356 339.307 866.459 341.08 865.682 342.146L865.325 342.629C864.818 343.291 864.317 343.78 863.364 343.928C861.572 344.206 860.015 343.739 858.983 342.146C848.093 325.32 834.141 311.892 815.746 303.478ZM948.572 306.809C950.253 303.962 954.71 304.535 955.597 307.727L955.725 308.005C956.204 309.093 955.986 309.316 955.093 308.7C957.305 310.522 958.306 313.236 957.63 316.154C953.978 331.914 936.127 343.168 920.565 341.619C919.207 341.484 919.022 339.815 920.253 339.317C926.24 336.893 931.554 332.956 935.827 328.125C939.98 323.429 941.727 318.056 943.961 312.385C944.799 310.256 946.103 308.723 947.94 307.886C948.183 307.55 948.395 307.192 948.572 306.809ZM860.075 296.682L860.182 296.688C868.178 297.721 875.095 301.667 880.71 307.449C886.118 313.017 892.943 322.205 892.358 330.376C891.971 335.793 884.269 338.89 881.395 333.346C879.68 330.038 879.291 326.412 878.09 322.914C876.988 319.708 875.466 316.664 873.644 313.809C869.893 307.927 864.735 302.944 859.453 298.448C858.835 297.922 859.266 296.684 860.075 296.682ZM654.99 294.281C653.217 292.593 655.061 289.715 657.316 290.285C669.209 293.296 680.987 296.958 693.352 297.322C699.528 297.503 705.669 297.016 711.787 296.217L714.884 295.806C719.655 295.183 724.508 294.694 729.224 295.674C732.368 296.327 732.982 300.377 731.023 302.49C721.772 312.469 703.928 311.515 691.659 309.833C678.336 308.005 664.893 303.715 654.99 294.281ZM869.755 263.177C868.941 262.048 870.311 260.266 871.607 260.767C883.426 265.335 895.813 277.228 899.069 289.671C899.929 292.958 895.784 295.44 893.35 293C888.814 288.453 885.612 283.082 881.778 277.971C877.957 272.876 873.486 268.351 869.755 263.177ZM676.102 268.734C675.154 267.787 676.108 265.901 677.47 266.383C685.165 269.108 692.918 271.466 701.002 272.703C709.282 273.969 717.64 273.007 725.963 273.52C729.33 273.727 731.623 278.965 727.88 280.595C711.248 287.836 688.658 281.27 676.102 268.734ZM697.349 252.492C696.027 251.514 696.779 248.83 698.578 249.579C705.906 252.63 713.317 253.38 721.181 253.066C724.086 252.949 724.697 257.514 721.866 258.13C713.173 260.021 704.453 257.744 697.349 252.492Z" fill="black"/>
<path fill-rule="evenodd" clip-rule="evenodd" d="M865.735 578.811C866.429 578.623 867.04 579.555 866.465 580.065C864.111 582.154 862.616 586.046 860.898 588.699C859.264 591.223 857.689 593.721 856.252 596.363C854.641 599.324 853.085 602.274 851.831 605.407L851.583 606.039C851.959 606.932 852.252 607.814 852.469 608.392L852.531 608.557C854.673 614.027 850.177 620.106 845.106 621.635C836.432 624.25 828.99 617.127 828.783 608.656C828.62 601.992 833.137 596.054 837.727 591.649C841.742 587.796 846.238 584.516 851.267 582.113C853.486 581.054 855.791 580.168 858.2 579.654C860.664 579.129 863.322 579.463 865.735 578.811ZM849.387 602.961C850.023 603.261 850.566 603.994 851.023 604.85C850.795 604.124 850.324 603.402 849.387 602.961ZM854.814 510.367C862.366 514.957 873.872 525.66 865.748 537.04C856.186 547.073 842.418 535.569 835.634 530.366C829.343 526.334 822.275 536.705 828.112 541.413C877.136 577.708 897.031 511.568 858.634 504.971C854.406 504.244 852.836 508.947 854.814 510.367ZM792.741 466.292L794.075 466.181C799.862 465.67 805.722 464.893 811.429 466.202C819.096 467.962 818.534 479.116 811.429 481.167C805.167 482.974 798.228 482.192 791.764 482.254C790.747 482.264 789.732 482.29 788.716 482.307C788.516 484.724 787.723 486.808 786.509 488.89C785.639 490.384 784.529 491.803 783.437 493.13C780.841 496.284 774.718 496.213 772.098 493.13C770.16 490.848 768.617 488.223 768.592 485.134C768.586 484.343 768.682 483.503 768.871 482.677L765.343 482.739C756.708 482.871 748.007 482.812 739.528 481.44C736.512 482.064 734.044 476.622 738.207 474.993C749.524 470.567 762.167 469.264 774.176 467.935C780.347 467.251 786.552 466.78 792.741 466.292ZM889.153 461.719L889.46 461.688C896.949 460.921 905.204 459.593 912.708 460.357C923.912 461.496 923.893 476.642 912.708 477.775C908.602 478.191 904.276 477.989 899.962 477.591C902.167 482.269 899.551 487.856 894.238 488.57C889.301 489.233 884.184 484.435 885.804 479.289L885.879 479.062C886.195 478.169 886.479 477.171 886.816 476.186L885.03 476.035C879.689 475.563 872.276 474.599 870.31 470.382C869.717 469.111 869.854 467.931 870.767 466.845C874.511 462.389 883.74 462.242 889.153 461.719ZM809.517 427.041C814.937 425.072 820.57 429.68 821.273 434.873C822.082 440.857 817.766 444.797 812.295 445.512L812.021 445.545C799.945 446.875 787.96 449.307 775.868 450.682C770.376 451.305 764.843 451.716 759.314 451.863L755.363 451.952C750.522 452.074 745.329 452.185 740.859 450.518L740.876 450.488C739.689 450.144 739.143 448.432 740.464 447.496C745.223 444.131 751.638 442.859 757.178 441.26C762.748 439.651 768.359 438.168 773.985 436.775C785.799 433.853 798.071 431.199 809.517 427.041ZM859.503 428.44C860.939 420.869 871.664 420.057 875.603 425.566C878.149 426.44 881.882 427.352 884.195 428.038C888.225 429.233 892.258 430.421 896.3 431.572C904.67 433.956 912.838 436.978 921.067 439.795C921.915 440.086 921.682 441.162 920.867 441.269C909.382 442.763 898.089 443.459 886.534 442.98L884.165 442.873C873.983 442.476 856.698 443.233 859.503 428.44Z" fill="black"/>
<path fill-rule="evenodd" clip-rule="evenodd" d="M961.09 484.283C951.556 548.772 885.002 555.904 873.177 491.882C875.075 491.051 876.44 489.415 876.155 486.239C876.088 472.287 880.419 457.541 893.005 449.782C906.011 441.776 921.232 440.982 936.283 441.184C965.005 440.5 964.401 464.507 961.09 484.283ZM862.758 456.236C853.744 455.856 842.34 456.174 834.265 461.666C832.045 455.688 826.277 449.305 820.449 445.892C842.111 446.526 864.409 444.394 886.233 442.739C881.009 446.3 876.149 451.65 872.99 457.835C870.059 456.272 865.861 456.418 862.758 456.236ZM823.026 491.12C798.031 577.156 735.64 539.656 728.838 528.63C716.569 510.384 714.261 466.03 724.948 454.171C740.246 443.447 761.903 446.207 779.975 445.944C813.176 446.392 836.756 456.324 823.026 491.12ZM990.603 451.549C983.812 450.661 976.555 450.482 970.241 453.472C968.297 445.209 962.194 438.301 955.303 435.261C954.469 434.215 954.594 433.653 951.745 433.81C934.25 428.552 914.673 431.334 897.861 436.726C871.309 438.962 843.452 440.725 816.677 443.806C791.595 432.542 715.902 430.891 711.198 458.654C705.281 457.769 695.204 453.112 690.232 459.429C653.761 453.246 616.076 461.839 579.447 465.666C570.227 467.364 565.478 485.662 575.944 485.412C581.828 483.815 575.763 474.018 583.686 473.281C619.027 469.421 653.595 463.945 689.298 463.304C688.056 469.469 712.912 469.87 713.279 466.27C713.332 466.297 713.388 466.315 713.442 466.339C707.3 489.229 712.844 522.171 723.944 536.365C739.496 554.951 778.541 560.283 795.854 548.325C818.187 537.288 841.42 481.886 834.894 463.48C846.738 459.726 858.447 460.853 870.739 462.765C867.925 470.714 863.067 490.282 870.056 491.979C868.773 530.829 904.13 555.07 936.724 539.133C964.935 525.89 974.801 483.972 971.349 458.529C974.861 465.315 1004.35 457.927 990.603 451.549Z" fill="black"/>
</svg>
