<svg width="372" height="599" viewBox="0 0 372 599" fill="none" xmlns="http://www.w3.org/2000/svg">
<path fill-rule="evenodd" clip-rule="evenodd" d="M156.877 290.297C168.046 281.8 196.087 277.979 208.007 286.161C219.781 294.377 221.065 307.663 226.552 319.886C231.728 317.447 240.277 320.94 241.778 325.739C243.639 328.002 243.723 334.362 245.006 337.404C300.86 346.287 309.339 389.792 316.062 439.182C324.955 489.301 345.145 539.311 336.38 590.884C337.522 592.535 338.423 594.14 339.255 596.045C341.25 599.437 338.681 604.237 334.657 604.051C329.448 603.594 324.292 602.971 319.059 602.776C304.553 602.272 290.034 602.332 275.522 602.517L273.544 602.542C200.41 603.452 127.281 605.244 54.1449 605.72C51.4916 605.724 50.1926 603.346 50.5469 601.001C51.2604 596.279 51.9224 591.555 52.6133 586.831C35.3147 591.396 16.9247 592.545 -0.325073 587.311C-1.5318 586.083 2.48654 586.749 3.12407 586.562C-12.7511 575.724 -8.01019 552.892 -6.60393 536.447C2.14041 480.098 5.22305 417.752 39.0081 369.668C53.6241 350.045 75.0524 334.509 99.6751 331.013L100.358 330.92C107.558 329.961 115.582 329.652 121.877 325.739C128.956 320.092 131.973 309.658 139.422 309.561C141.881 309.528 145.227 312.637 148.827 314.748C149.096 310.105 151.6 306.187 152.153 302.587L152.198 302.279C152.775 298.082 151.985 294.306 156.877 290.297ZM276.911 440.671C261.214 429.777 220.668 435.251 219.739 435.861C217.696 437.204 216.815 437.323 215.71 439.067C214.619 439.211 213.528 439.361 212.439 439.516C210.253 440.229 211.873 442.916 214.398 441.957C212.879 448.5 217.348 453.154 219.127 459.622C219.705 461.723 219.148 465.5 219.127 467.646C219.3 470.382 222.328 473.614 221.823 476.36C220.029 486.119 210.293 495.639 214.398 505.104C217.117 510.449 225.296 513.175 230.733 514.993C241.999 519.312 261.629 514.83 268.175 505.104C271.666 499.916 275.711 486.83 277.793 482.771L278.254 476.332C279.392 460.327 280.405 443.096 276.911 440.671Z" fill="white"/>
<path fill-rule="evenodd" clip-rule="evenodd" d="M136.687 308.617C137.771 307.658 139.374 308.863 138.685 310.158C137.138 313.069 135.551 315.827 133.474 318.4C132.215 319.96 130.866 321.435 129.499 322.895C133.007 325.927 136.015 329.691 138.856 333.219C142.489 337.731 145.924 342.434 150.002 346.562C154.024 350.634 158.471 353.48 163.848 355.378L164.934 355.755C170.336 357.65 176.109 360.208 179.153 365.318C179.754 366.326 178.545 367.571 177.529 366.942C172.238 363.669 166.022 363.011 160.263 360.848C154.7 358.759 149.85 355.544 145.565 351.441C141.288 347.344 137.696 342.684 133.949 338.122C130.245 333.611 126.256 329.758 121.874 325.941C115.111 330.486 107.392 332.464 99.5434 334.406L98.6866 334.618C90.8282 336.562 83.0119 338.82 75.6395 342.205C69.1393 345.189 62.746 348.752 57.4513 353.608C51.8308 358.762 47.4563 365.343 43.4525 371.78C34.4964 386.181 28.1999 401.958 22.6567 417.926C16.8914 434.535 12.0691 451.478 8.17605 468.621C6.19607 477.341 4.58801 486.123 3.26636 494.967C2.63019 499.226 2.06506 503.494 1.56871 507.772C1.03887 512.34 0.91716 517.039 -0.48548 521.432C-1.08681 523.314 -2.50664 524.095 -3.92783 524.029L-4.21649 527.636C-4.59927 532.444 -4.9561 537.255 -5.07664 542.094C-5.27659 550.139 -5.18593 558.162 -4.60667 566.191L-4.52463 567.285C-4.06945 573.145 -3.05231 579.729 1.35786 584.019C5.92504 588.463 12.9487 589.86 19.1044 589.94C33.4417 590.127 47.2428 583.359 59.9299 577.421C72.9961 571.306 85.7054 564.518 98.1102 557.157C104.428 553.408 110.677 549.535 116.846 545.548C119.873 543.591 122.879 541.601 125.863 539.579C127.572 538.421 129.191 537.151 130.931 536.123C130.079 535.331 129.698 534.084 130.412 532.995C125.383 528.634 123.29 520.851 123.045 514.553C122.847 509.47 123.596 504.401 124.187 499.366C124.485 496.826 124.854 494.292 125.236 491.764C125.387 490.765 125.502 489.697 125.679 488.643C112.099 496.099 98.1387 502.738 83.8087 508.637C76.4634 511.661 69.024 514.38 61.4818 516.871L59.9532 517.373C52.807 519.71 45.4898 521.918 38.1021 523.254C37.7071 523.326 37.3863 522.743 37.808 522.557C45.0076 519.383 52.4565 516.706 59.7643 513.783L60.9651 513.295C60.8271 513.287 60.6841 513.268 60.5348 513.232C56.2491 512.199 51.9968 510.606 47.7934 509.265C43.8923 508.021 39.5092 507.239 35.8628 505.361C35.5823 505.216 35.7393 504.826 36.0126 504.808C40.111 504.524 44.5601 505.717 48.5784 506.419L50.088 506.684C52.6168 507.129 55.2018 507.608 57.7182 508.233C57.8092 507.39 58.2802 506.545 58.9503 506.049C66.3241 500.593 65.5753 489.574 66.3639 481.448L66.9487 475.415C67.9774 464.857 69.0656 454.301 70.7189 443.822C70.8071 443.262 71.6736 443.423 71.6772 443.951C71.7625 456.941 70.781 469.871 70.2891 482.84L70.2129 484.968C69.9409 492.97 69.7278 501.28 64.683 507.438C65.3884 507.026 66.3422 507.026 66.9137 507.705C67.6159 508.54 68.0213 509.478 68.0086 510.397C72.5672 508.488 77.1059 506.529 81.6224 504.53C96.1433 498.102 110.36 490.91 124.2 483.127C125.69 482.29 127.105 482.948 127.842 484.052L127.948 484.037C127.966 484.035 127.984 484.033 128.003 484.032L128.108 484.028C128.112 484.028 128.116 484.028 128.12 484.028C130.068 482.959 132.722 483.72 134.394 485.28C134.444 485.327 134.486 485.378 134.53 485.428C136.646 484.478 138.623 483.197 140.416 481.573C144.087 478.249 147.195 474.139 149.906 470.019C154.897 462.429 159.136 453.988 165.879 447.74C171.357 442.664 178.148 439.504 185.273 437.52C185.243 437.312 185.323 437.09 185.467 436.943C185.833 436.568 186.094 436.439 186.567 436.666C186.604 436.684 186.627 436.71 186.642 436.737L187.337 435.55C187.717 434.906 188.107 434.257 188.242 434.087C189.051 433.069 189.883 432.06 190.728 431.071C192.161 429.397 193.794 427.745 195.685 426.584C199.825 424.043 204.177 425.481 208.434 426.87C211.006 427.709 213.569 428.576 216.136 429.428L216.401 429.514C218.315 430.129 220.555 430.667 221.411 432.693C221.75 433.495 221.803 434.327 221.645 435.134C239.827 430.515 260.021 432.637 277.764 438.06C278.445 438.268 279.125 438.828 279.268 439.563C281.301 449.979 282.206 460.66 281.286 471.254C280.493 480.398 278.465 489.359 274.643 497.73L274.426 498.203C270.835 505.961 265.142 515.525 256.449 517.957C251.2 519.425 245.395 518.56 240.041 518.291C234.838 518.029 229.52 517.991 224.366 517.174C219.777 516.446 215.755 514.39 212.919 510.662C210.472 507.445 209.183 503.557 208.127 499.69C207.644 499.844 207.164 500.007 206.692 500.192C204.698 500.97 203.008 502.226 201.481 503.703C198.255 506.824 195.753 510.615 192.378 513.593C189.323 516.289 185.842 518.386 182.108 519.998C174.37 523.338 166.069 524.673 157.884 526.443L157.313 526.567C151.152 527.918 144.862 529.577 139.424 532.782C139.318 533.725 138.887 534.613 138.198 535.194C139.157 536.095 139.563 537.52 138.72 538.857C136.366 542.59 132.31 544.714 128.669 547.102L128.432 547.258C124.85 549.63 121.237 551.956 117.595 554.234C110.191 558.865 102.631 563.242 94.9651 567.426C82.635 574.156 70.0402 580.504 57.2174 586.263C57.987 590.046 57.7058 593.946 58.2842 597.755L58.3729 598.298C58.6201 599.711 58.2863 600.894 57.3118 601.817L57.2087 601.912L57.2106 601.899L57.1192 601.983L57.0886 602.008L57.0988 602C56.9865 602.103 56.8706 602.199 56.7525 602.281L56.602 602.377C55.6635 602.947 54.4552 602.941 53.4943 602.438L53.3845 602.377L53.1999 602.272C51.9303 601.542 51.0548 599.734 51.5814 598.298C52.8759 594.769 53.3651 591.002 54.5605 587.448L53.6121 587.872L52.3621 588.416C38.8434 594.257 23.8269 599.175 9.09727 595.193C2.58902 593.434 -3.49392 589.711 -6.75031 583.644C-9.95466 577.674 -10.4076 570.743 -10.5777 564.102C-10.7876 555.906 -10.3479 547.584 -9.26601 539.459C-8.5398 534.004 -7.66157 528.447 -6.30689 523.049C-7.00369 522.434 -7.51588 521.553 -7.65116 520.462C-8.2905 515.306 -7.17155 509.946 -6.48652 504.817C-5.81733 499.809 -5.078 494.812 -4.24184 489.829C-2.5537 479.767 -0.592262 469.726 1.69133 459.781C5.75537 442.083 11.122 424.699 17.5832 407.731L18.1491 406.253C24.1196 390.743 31.0325 375.564 40.6585 361.939C45.2632 355.421 50.1308 349.511 56.6373 344.813C62.7329 340.412 69.6085 337.243 76.7041 334.821C83.8073 332.397 91.1083 330.773 98.5382 329.763C106.084 328.736 114.049 328.107 121.088 325.015C120.197 323.42 120.961 321.267 122.46 320.278C127.503 316.949 132.167 312.618 136.687 308.617ZM298.129 453.374C298.34 453.054 298.842 453.256 298.749 453.636C296.296 463.675 293.994 473.735 292.49 483.967C289.776 502.433 290.275 521.141 290.497 539.743L290.508 540.706C290.623 550.726 290.781 560.747 291.113 570.763C291.28 575.825 291.611 580.937 291.431 586.002C291.333 588.75 290.6 591.348 290.34 594.063C290.113 596.437 290.315 598.847 290.429 601.224C290.505 602.804 288.17 602.737 288.011 601.224L287.808 599.267C287.544 596.79 287.218 594.329 286.406 591.958C285.429 589.107 284.96 586.307 284.621 583.314C284.102 578.726 283.872 574.093 283.671 569.474L283.534 566.279C282.698 546.974 282.727 527.579 284.081 508.294L284.18 506.917C285.521 488.689 287.848 468.993 298.129 453.374ZM245.844 338.486C245.204 338.223 245.428 337.255 246.138 337.424L247.428 337.731C256.882 339.994 266.164 342.445 274.989 346.655C283.818 350.867 291.294 357.156 297.234 364.888C308.781 379.92 313.579 398.187 317.367 416.438C321.577 436.717 325.41 457.071 329.656 477.344L330.445 481.121C334.374 500.003 338.084 518.896 340.817 538.002L341.014 539.387C343.77 559.034 345.428 579.362 342.42 599.06C341.825 602.957 335.334 601.986 335.588 598.136C336.321 587.005 336.846 575.933 336.339 564.777C335.831 553.619 334.784 542.509 333.222 531.449C331.908 522.141 329.949 512.949 328.216 503.715L327.944 502.257C326.493 494.403 324.996 486.557 323.503 478.71L321.272 466.962C317.928 449.371 314.518 431.765 310.665 414.285L310.437 413.256C306.666 396.439 301.108 378.823 289.799 365.468C278.322 351.915 261.892 345.089 245.844 338.486ZM204.142 516.866C204.418 516.252 205.384 516.319 205.68 516.866C206.843 519.01 206.973 521.746 207.193 524.167L207.216 524.416C207.495 527.369 207.743 530.332 207.894 533.295C208.182 538.918 208.319 544.534 208.302 550.164C208.283 555.934 208.167 561.698 207.856 567.459L207.771 569.003C207.487 574.01 207.011 579.594 204.629 583.971C203.764 585.563 201.41 585.095 200.908 583.486C199.266 578.217 200.109 571.969 200.531 566.573L200.858 562.362C201.182 558.15 201.49 553.937 201.735 549.721C202.071 543.952 202.348 538.179 202.615 532.407C202.701 530.533 202.795 528.658 202.894 526.783L203.046 523.972C203.176 521.62 203.165 519.04 204.142 516.866ZM19.4696 524.334L20.1967 523.632C22.4287 521.45 25.2493 518.089 28.5489 518.297C29.8646 518.38 30.7031 519.472 30.4302 520.765C29.8474 523.53 27.0245 524.965 24.9925 526.653C22.7664 528.501 20.6683 530.477 18.5743 532.472C16.7166 534.241 14.93 536.06 13.1863 537.936L12.5343 538.642C11.9093 539.323 7.45834 543.346 7.93959 544.389L7.96579 544.436C8.09972 544.636 7.87666 544.911 7.6545 544.84C5.73243 544.234 5.85233 542.588 6.57899 540.92C7.97529 537.716 10.4204 534.752 12.5556 532.016C14.685 529.286 16.9898 526.744 19.4696 524.334ZM211.107 443.98C209.621 440.47 204.145 440.544 201.037 440.753C193.209 441.282 184.74 443.261 177.775 446.916C170.555 450.705 165.691 456.777 161.339 463.492L161.135 463.807C156.893 470.395 152.808 478.193 146.166 482.723C142.783 485.03 138.832 487.137 134.727 488.05C134.445 488.545 133.989 488.937 133.39 489.079L133.112 489.143C131.943 489.401 130.127 489.686 128.558 489.516C128.568 490.282 128.56 491.043 128.58 491.77C128.635 493.851 128.658 495.942 128.658 498.025C128.659 502.39 128.424 506.763 128.607 511.127C128.768 514.987 129.314 519.02 131.169 522.471C132.53 525.002 134.326 526.678 136.493 528.277C141.826 525.03 147.856 523.051 153.976 521.563C161.377 519.763 168.956 518.562 176.189 516.122C179.67 514.947 183.017 513.409 186.049 511.321C189.268 509.104 191.726 506.104 194.255 503.17L194.651 502.714C197.232 499.756 200.048 496.926 203.696 495.323C206.838 493.941 210.978 493.695 213.725 491.558C215.161 490.44 215.282 488.817 215.433 487.155C213.674 487.406 211.811 487.004 210.058 486.798L209.15 486.692C207.492 486.495 205.872 486.279 204.24 485.857C203.937 485.779 203.937 485.322 204.24 485.244C206.169 484.746 208.08 484.534 210.058 484.303L210.523 484.245C212.312 484.011 214.192 483.657 215.947 484.05C216.262 482.853 216.717 481.71 217.355 480.566C218.25 478.958 219.945 477.135 220.174 475.256C220.242 474.695 220.111 474.034 219.847 473.538L219.756 473.369C219.644 473.17 219.512 472.969 219.32 472.844C219.298 472.869 219.253 472.898 219.155 472.928C217.804 473.353 216.626 472.693 216.001 471.675C213.346 472.004 210.449 471.893 207.96 472.003L205.443 472.125C202.753 472.248 199.941 472.302 197.414 471.759C197.061 471.683 196.954 471.097 197.308 470.946C200.415 469.618 204.184 469.194 207.51 468.685C209.368 468.399 211.24 468.182 213.103 467.931C214.343 467.764 215.66 467.488 216.946 467.421C220.168 463.413 218.432 457.09 213.947 455.364C212.313 456.081 210.844 455.664 209.059 455.511C207.277 455.358 205.491 455.254 203.701 455.262C200.117 455.278 196.318 456.22 192.768 455.815C192.19 455.748 191.654 454.98 192.228 454.512C194.945 452.297 198.84 451.574 202.289 451.102L203.004 451.006C204.161 450.855 205.567 450.634 207.026 450.502C207.356 449.86 207.947 449.374 208.836 449.253C209.101 449.217 209.366 449.196 209.631 449.173L209.627 449.147C211.796 449.043 211.702 445.384 211.107 443.98ZM62.6673 512.432C62.629 512.491 62.5871 512.547 62.5424 512.602L62.4736 512.681L62.8302 512.537L62.6673 512.432ZM248.943 436.137C239.817 435.157 230.677 435.364 221.524 435.627C220.792 438.019 218.244 440.058 215.775 440.135C217.708 443.076 217.908 447.056 216.552 450.174C219.431 451.319 221.911 453.376 223.417 456.305C225.505 460.366 225.232 464.885 223.168 468.638C224.93 470.231 225.969 472.818 225.865 475.256C225.749 477.976 224.127 480.298 222.779 482.55C221.322 484.984 221.273 487.128 220.826 489.855C220.171 493.845 217.477 496.266 214.011 497.777L214.195 498.502C215.089 501.977 216.201 505.644 218.755 508.186C222.041 511.455 227.138 511.425 231.479 511.632L231.689 511.642C235.664 511.84 239.637 512.073 243.611 512.298L246.592 512.465C251.167 512.716 255.561 512.746 259.296 509.724C265.394 504.792 269.574 496.628 272.22 489.401C277.774 474.232 277.84 457.585 275.291 441.786C266.742 439.033 257.871 437.095 248.943 436.137ZM173.047 461.304L173.114 461.308C174.993 461.523 176.284 463.043 176.744 464.846C177.412 467.467 177.084 469.837 178.691 472.203C180.344 474.636 181.36 476.584 181.6 479.59C181.699 480.826 181.654 482.06 181.929 483.271L182.129 484.119C182.341 485.023 182.515 485.894 182.409 486.865C182.313 487.751 181.881 488.441 180.992 488.725C178.095 489.65 175.858 487.518 175.11 484.82C174.463 482.49 175.326 479.714 174.414 477.526C173.909 476.313 172.977 475.299 172.45 474.078C171.928 472.867 171.666 471.603 171.583 470.288C171.424 467.799 173.626 464.81 172.397 462.556C172.136 462.075 172.432 461.289 173.047 461.304ZM134.564 435.628C136.526 435.229 138.751 434.317 140.686 435.075C141.681 435.466 142.172 436.677 141.332 437.52C139.873 438.981 137.753 439.062 135.788 439.407L135.615 439.438C133.291 439.867 130.964 440.274 128.633 440.66C124.248 441.386 119.853 442.027 115.443 442.573C110.912 443.133 106.37 443.631 101.821 444.007L100.06 444.151C96.2169 444.458 92.2184 444.69 88.4481 444.101C87.9001 444.016 87.9883 443.219 88.4481 443.079C92.5786 441.83 97.1096 441.495 101.38 440.967C105.92 440.404 110.452 439.81 114.973 439.104C119.486 438.4 123.994 437.644 128.484 436.809C130.514 436.432 132.541 436.038 134.564 435.628ZM205.354 431.617C203.632 431.008 201.738 430.106 199.873 430.408C196.656 430.929 193.792 434.06 191.246 436.123L192.525 435.874C199.067 434.618 207.731 433.265 213.223 437.42C213.237 437.396 213.248 437.373 213.263 437.349C213.707 436.676 214.22 436.151 214.781 435.576C214.835 435.525 214.886 435.473 214.937 435.42L215.24 435.098L214.548 434.859C213.066 434.336 211.311 433.66 211.033 433.561L211.014 433.554C209.125 432.915 207.234 432.283 205.354 431.617ZM151.6 294.611C151.331 291.152 156.72 291.18 156.987 294.611C157.57 302.102 155.882 309.521 152.251 316.088C152.224 316.136 152.195 316.179 152.167 316.224C154.438 317.405 156.735 318.538 159.084 319.55C162.088 320.846 165.148 322.026 168.263 323.026C171.081 323.932 174.553 324.29 176.922 326.175C181.918 330.149 180.041 338.398 179.08 343.744L178.93 344.588C178.451 347.339 178.105 350.162 179.266 352.802C180.506 355.623 183.013 357.715 185.25 359.733L185.701 360.142C187.683 361.945 189.947 364.137 191.4 366.581C192.727 363.841 194.535 361.602 196.447 359.081C197.811 357.281 196.84 356.688 195.86 354.931C194.917 353.239 194.456 351.436 194.751 349.506C195.296 345.942 198.147 343.368 200.985 341.433C204.336 339.15 208.076 337.458 211.541 335.334C218.66 330.97 225.593 325.98 231.839 320.438C232.012 320.285 232.311 320.486 232.173 320.695C227.238 328.193 221.453 334.673 214.342 340.172C211.459 342.402 208.43 344.252 205.381 346.197L204.505 346.759C203.28 347.551 201.753 348.61 201.2 349.959C200.643 351.316 201.831 352.34 202.47 353.464C204.5 357.033 203.521 360.362 201.114 363.389L201.002 363.528C198.61 366.473 196.797 369.212 195.931 372.974C194.068 381.055 196.662 389.473 199.378 397.059L199.486 397.358C200.955 401.448 202.516 405.507 203.793 409.662L204.144 410.81C205.3 414.633 206.247 418.404 204.95 422.334C204.509 423.671 202.684 423.987 201.926 422.728C199.253 418.292 198.586 412.953 196.91 408.076C195.277 403.322 193.401 398.654 191.824 393.881C189.792 387.735 188.432 381.12 189.17 374.673C189.149 374.636 189.125 374.6 189.106 374.561L188.589 373.431C187.179 370.37 185.817 367.698 183.252 365.258C180.577 362.714 177.674 360.461 175.569 357.381C170.997 350.69 173.825 343.247 174.377 335.931L174.44 335.034C174.54 333.515 174.595 331.45 173.602 330.399C172.485 329.216 169.865 328.914 168.383 328.39C164.553 327.035 160.778 325.457 157.182 323.562C153.76 321.758 150.445 319.766 147.358 317.431L145.793 316.255C143.325 314.395 140.765 312.363 139.111 309.83C138.92 309.538 139.244 309.067 139.59 309.207C142.352 310.327 144.875 312.108 147.459 313.658C147.5 313.563 147.546 313.468 147.599 313.372C150.796 307.591 152.111 301.186 151.6 294.611ZM239.823 334.218C240.924 331.203 245.939 331.436 245.739 335.018C245.586 337.77 244.416 340.254 243.347 342.753L243.233 343.02C242.129 345.624 240.854 348.068 239.328 350.454C236.413 355.015 232.998 359.248 229.351 363.243C226.044 366.865 221.704 369.08 216.703 368.712C214.596 368.557 212.469 368.021 210.622 366.969C208.429 365.72 206.047 361.968 203.249 362.877C202.979 362.965 202.726 362.569 202.96 362.381C206.19 359.782 209.857 363.812 212.949 364.783C217.609 366.245 222.391 364.628 225.391 360.864C228.522 356.935 231.404 352.535 234.036 348.256C235.373 346.084 236.592 343.829 237.646 341.505C238.709 339.159 238.95 336.61 239.823 334.218ZM232.312 315.665C232.176 315.248 232.694 314.852 233.06 315.09C235.182 316.471 237.022 318.295 238.979 319.894C241.152 321.667 243.34 323.405 245.562 325.116C248.801 327.611 245.044 332.204 242.193 329.479C238.291 325.75 234.017 320.875 232.312 315.665ZM220.659 301.073C221.521 297.751 226.621 299.12 225.878 302.404L225.853 302.504C224.446 307.927 226.451 313.448 230.73 316.964L230.888 317.092C233.596 319.256 229.76 323.041 227.079 320.897C221.226 316.217 218.791 308.268 220.659 301.073Z" fill="black"/>
<path fill-rule="evenodd" clip-rule="evenodd" d="M275.06 146.396C274.908 140.99 267.038 138.746 264.765 144.099C264.624 144.243 264.47 144.381 264.326 144.504C265.038 143.894 263.55 144.903 263.308 145.028C263.101 145.135 262.889 145.231 262.677 145.33C261.215 131.636 256.251 116.873 243.422 109.999C225.53 101.33 204.856 99.638 185.226 100.499C175.283 101.089 163.8 102.677 154.966 97.6512C152.213 96.0853 150.006 93.6202 146.895 92.6524C137.076 89.9984 132.621 100.073 133.959 108.358C129.77 108.391 125.615 110.707 123.808 114.522C122.746 116.779 122.765 119.216 121.85 121.481C119.041 127.227 115.023 131.357 117.295 138.323C113.299 142.866 115.577 149.743 118.801 154.092C120.394 156.354 122.29 158.526 123.456 161.058C124.588 163.482 122.879 166.357 121.928 168.655C114.897 185.313 115.299 203.658 119.082 221.033C111.49 224.325 109.211 234.613 114.162 241.092C115.866 243.382 117.944 244.232 120.301 245.641C123.283 247.281 120.847 253.85 121.803 257.023C123.1 264.768 130.159 269.537 137.138 264.508C141.567 263.838 145.139 276.712 148.355 279.944C150.336 282.547 152.536 284.886 154.928 287.043C162.054 305.363 198.571 314.652 216.625 313.592C235.531 311.614 248.286 295.573 258.906 281.336C264.36 273.75 267.907 265.259 269.197 255.999C270.492 246.692 269.926 237.368 269.05 228.05C267.209 208.252 264.306 179.729 262.432 159.717C269.206 159.16 275.265 153.397 275.06 146.396Z" fill="white"/>
<path fill-rule="evenodd" clip-rule="evenodd" d="M127.381 134.493C127.375 134.521 127.384 134.542 127.391 134.572C127.392 134.563 127.393 134.559 127.396 134.548C127.39 134.526 127.386 134.511 127.381 134.493Z" fill="#4F66AF"/>
<path fill-rule="evenodd" clip-rule="evenodd" d="M127.379 134.781C127.355 134.754 127.319 134.735 127.284 134.709C127.283 134.71 127.283 134.71 127.282 134.711C127.315 134.733 127.347 134.758 127.379 134.781Z" fill="#4F66AF"/>
<path fill-rule="evenodd" clip-rule="evenodd" d="M273.983 148.954C276.208 147.107 279.713 148.808 278.959 151.849C278.139 155.16 274.586 157.423 271.653 158.784C268.634 160.184 265.694 160.454 262.4 160.301L262.36 160.292C263.274 163.955 263.793 167.763 264.492 171.448C265.38 176.123 266.253 180.8 267.113 185.48C267.945 190.003 268.997 194.532 269.637 199.078C270.281 203.667 270.9 208.259 271.534 212.849C272.591 220.516 273.444 228.217 274.344 235.906L274.773 239.545C275.674 247.248 276.399 254.96 274.692 262.625C273.091 269.81 269.486 276.511 265.304 282.508C261.209 288.38 256.634 294.026 251.612 299.134C241.925 308.985 229.98 316.874 215.974 318.338C209.943 318.968 203.502 318.267 197.832 316.076L197.455 315.929C191.716 313.665 184.688 309.789 183.194 303.428C182.277 299.526 186.301 296.479 189.83 298.331C191.465 299.189 192.694 300.169 194.036 301.399L194.275 301.618C195.371 302.636 195.794 302.949 197.059 303.745C199.655 305.376 201.6 306.148 204.549 306.89C209.985 308.256 215.851 308.04 221.37 306.424C233.086 302.994 242.175 294.043 249.961 285.069C254.189 280.195 258.202 275.083 261.297 269.403C264.544 263.443 266.043 257.186 265.953 250.406C265.851 242.754 264.793 235.074 264.099 227.459C263.391 219.696 262.737 211.935 262.16 204.161C261.62 196.871 261.568 189.548 261.379 182.235L261.342 180.864C261.231 176.981 261.154 173.098 261.066 169.215C260.979 165.343 260.672 161.422 261.071 157.566C261.1 157.285 261.478 157.214 261.571 157.498C261.806 158.221 262.012 158.954 262.206 159.692C262.236 159.67 262.27 159.649 262.31 159.635C264.891 158.749 267.268 156.98 269.205 155.073C271.052 153.252 272.018 150.585 273.983 148.954ZM132.779 94.7086C134.4 88.0561 141.696 86.5702 147.09 89.7739C149.685 91.3145 151.763 93.5364 154.187 95.3021C156.597 97.0579 159.26 98.4679 162.07 99.4637C167.653 101.442 173.542 102.161 179.443 102.187C193.804 102.25 207.872 98.2174 222.254 98.6672C233.383 99.0153 245.195 102.301 253.268 110.339C257.616 114.669 260.418 120.235 261.921 126.145C262.624 128.907 263.147 131.736 263.561 134.558L263.662 135.264C263.893 136.913 264.264 138.66 264.298 140.327C264.329 141.824 263.95 143.391 263.745 144.873C263.312 147.996 258.469 147.641 257.773 144.873C256.189 138.571 256.852 132.066 254.915 125.786C253.198 120.217 249.87 115.347 245.048 112.017C224.706 97.967 198.619 109.733 176.206 108.64C170.728 108.372 165.169 107.527 160.002 105.642C157.338 104.67 154.714 103.485 152.299 101.994C150.085 100.629 148.168 98.9137 146.119 97.3354L145.215 96.6491C143.81 95.5933 141.419 93.9426 140.002 95.3392C139.385 95.9471 139.348 97.3217 139.359 98.3714L139.366 98.8458C139.431 103.302 140.34 107.75 138.67 112.056C137.909 114.019 135.793 115.258 133.78 114.146L133.676 114.086C129.419 111.556 123.825 116.64 127.096 120.848L127.198 120.975C129.038 123.209 128.057 127.144 124.763 127.134L124.645 127.132C118.777 126.949 116.174 134.275 121.232 137.476L121.387 137.572C125.493 140.027 121.892 145.93 117.683 143.903C118.04 144.075 117.42 144.072 117.065 144.548C116.724 145.005 116.699 145.4 116.78 145.977C117.026 147.724 118.564 149.197 119.81 150.303C122.641 152.815 126.15 154.549 129.765 155.605C144.249 159.836 159.108 154.661 173.219 151.536C187.931 148.278 204.547 146.966 217.378 156.211C217.53 156.32 217.397 156.565 217.228 156.467C208.02 151.125 196.743 151.599 186.678 153.789C173.479 156.661 160.396 162.008 146.879 163.416C150.674 170.109 152.262 178.015 151.248 185.67C150.551 190.94 148.451 195.511 145.972 200.144L145.499 201.026C143.288 205.184 141.576 209.112 141.549 213.929C141.522 218.715 134.4 219.724 133.193 215.06C130.453 204.466 140.437 196.121 144.51 187.385C147.992 179.917 148.099 171.21 145.282 163.564C142.103 163.819 138.899 163.846 135.663 163.557C132.883 163.309 130.024 162.809 127.237 162.017L126.122 166.7C124.644 172.938 123.276 179.172 122.861 185.651C122.555 190.412 122.572 195.197 123.036 199.946C123.438 204.048 124.286 208.004 125.149 212.009C125.889 212.984 126.267 214.477 126.059 215.667C130.864 217.049 134.644 220.837 136.025 225.855C136.109 226.16 135.681 226.332 135.521 226.067C132.244 220.636 123.808 218.638 118.471 222.226C113.374 225.651 111.364 232.568 114.249 238.043C115.767 240.922 118.016 242.945 120.917 244.338L121.501 244.612C123.021 245.33 124.416 246.114 125.394 247.557C126.662 249.43 126.705 251.409 126.585 253.549L126.533 254.416C126.453 255.85 126.435 257.326 126.863 258.706L126.96 259.013C127.073 259.357 127.191 259.66 127.397 259.989C127.459 260.086 128.036 260.652 128.224 260.857L128.461 260.929L128.727 260.94C129.021 260.944 129.407 260.817 129.28 260.905L129.315 260.885C129.427 260.816 129.529 260.742 129.616 260.677L129.78 260.549C130.164 259.994 130.645 259.536 131.236 259.186L131.8 258.936C133.266 257.39 135.777 258.202 136.827 259.742C137.584 260.85 137.99 261.976 138.024 263.086C138.142 262.897 138.404 262.793 138.571 263.005L139.567 264.274C143.379 269.139 147.124 274.035 151.455 278.47C153.841 280.914 156.407 283.21 159.09 285.325C161.38 287.131 165.725 288.869 165.792 292.158C165.812 293.226 165.054 293.982 164.125 294.345C161.103 295.524 157.369 291.513 155.187 289.561L155.008 289.403C152.337 287.066 149.899 284.5 147.65 281.756C143.28 276.426 139.626 270.291 138.016 263.542C137.941 264.72 137.435 265.874 136.45 266.963C135.139 268.412 133.345 269.428 131.429 269.847C127.088 270.795 122.849 269.234 120.266 265.62C118.083 262.564 117.44 258.529 117.721 254.838L117.756 254.395C117.796 253.803 117.846 252.717 118 252.255L116.633 251.505C114.957 250.614 113.403 249.446 112.009 248.162C106.406 243.001 103.595 234.614 106.157 227.275C107.759 222.684 111.126 218.689 115.437 216.613C114.716 214.949 114.475 212.973 114.203 211.225L114.158 210.936C113.697 208.068 113.311 205.164 113.164 202.262C112.888 196.842 113.223 191.371 114.075 186.014C115.46 177.312 118.326 168.084 123.58 160.784C119.572 159.194 115.882 156.891 113.035 153.694C110.059 150.354 108.162 145.571 110.463 141.329C111.049 140.247 111.813 139.338 112.692 138.616C111.169 135.743 110.676 132.347 111.616 129.101C112.739 125.221 115.788 122.194 119.471 120.781C118.577 117.105 119.308 113.15 122.041 110.086C124.753 107.046 128.963 105.939 132.859 106.634C133.071 102.724 131.839 98.565 132.779 94.7086ZM121.85 231.998C125.422 230.251 129.656 230.528 133.225 232.184L133.467 232.298C137.363 234.186 142.523 238.596 141.285 243.287C140.56 246.03 137.509 246.966 135.144 245.782C133.168 244.793 132.717 243.024 131.726 241.247C131.025 239.99 130.159 239.008 129.141 237.998C126.996 235.869 124.587 234.288 121.85 233.022C121.455 232.84 121.469 232.184 121.85 231.998ZM211.869 137.188C211.535 137.036 211.778 136.512 212.115 136.607C221.092 139.169 229.462 144.918 234.464 152.898C234.769 153.385 234.815 154.187 234.464 154.668L234.302 154.887C234.072 155.186 233.846 155.407 233.415 155.474C232.604 155.6 231.9 155.389 231.433 154.668C226.505 147.062 220.193 140.992 211.869 137.188ZM271.968 138.695C272.729 137.408 274.745 137.667 275.147 139.11L275.205 139.235C275.422 139.727 275.323 139.828 274.919 139.549C275.92 140.373 276.373 141.6 276.067 142.919C274.414 150.043 266.337 155.131 259.296 154.431C258.682 154.37 258.598 153.615 259.155 153.39C261.864 152.294 264.268 150.514 266.202 148.331C268.081 146.208 268.871 143.779 269.882 141.215C270.261 140.253 270.851 139.56 271.682 139.181C271.792 139.03 271.888 138.868 271.968 138.695ZM231.926 134.116L231.975 134.119C235.593 134.586 238.723 136.37 241.263 138.984C243.71 141.501 246.798 145.654 246.534 149.348C246.358 151.797 242.874 153.197 241.573 150.691C240.797 149.195 240.621 147.556 240.078 145.975C239.579 144.526 238.891 143.149 238.066 141.859C236.369 139.2 234.035 136.947 231.645 134.915C231.366 134.677 231.56 134.117 231.926 134.116ZM139.133 133.031C138.33 132.268 139.165 130.967 140.185 131.225C145.566 132.586 150.895 134.241 156.49 134.406C159.285 134.488 162.063 134.267 164.831 133.906L166.233 133.72C168.391 133.439 170.587 133.218 172.721 133.661C174.143 133.956 174.421 135.787 173.535 136.742C169.349 141.253 161.275 140.822 155.724 140.061C149.696 139.235 143.613 137.296 139.133 133.031ZM236.306 118.97C235.938 118.46 236.558 117.654 237.144 117.881C242.492 119.946 248.097 125.322 249.57 130.947C249.959 132.433 248.083 133.555 246.982 132.452C244.93 130.396 243.481 127.968 241.746 125.658C240.017 123.355 237.994 121.309 236.306 118.97ZM148.685 121.482C148.256 121.054 148.688 120.202 149.304 120.419C152.786 121.651 156.294 122.717 159.952 123.276C163.698 123.849 167.48 123.414 171.246 123.646C172.769 123.739 173.806 126.107 172.113 126.844C164.588 130.117 154.366 127.149 148.685 121.482ZM158.299 114.14C157.7 113.698 158.041 112.485 158.855 112.823C162.17 114.203 165.524 114.542 169.082 114.4C170.396 114.347 170.673 116.41 169.392 116.689C165.458 117.544 161.513 116.514 158.299 114.14Z" fill="black"/>
<path fill-rule="evenodd" clip-rule="evenodd" d="M233.192 269.839C230.121 271.045 226.493 271.33 223.323 270.303C220.293 269.32 217.541 267.132 215.875 264.382C214.392 261.931 213.773 259.024 214.649 256.125C214.691 255.986 214.827 255.898 214.958 255.863C215.676 256.515 216.119 257.163 216.561 257.808C217.308 258.895 218.056 259.971 219.082 260.9C220.576 262.252 222.589 263.35 224.587 263.712C226.542 264.067 228.544 263.753 230.295 262.818C231.36 262.249 232.221 261.489 233.074 260.726C234.003 259.895 234.916 259.051 236.195 258.581C237.22 258.205 238.297 258.522 239.123 259.152C240.012 259.828 240.651 260.887 240.616 261.994C240.561 263.709 239.81 265.14 238.719 266.32C237.245 267.916 235.161 269.066 233.192 269.839ZM229.546 227.097C232.963 229.172 238.169 234.011 234.493 239.155C230.167 243.691 223.938 238.49 220.868 236.138C218.022 234.315 214.824 239.003 217.464 241.132C239.646 257.539 248.648 227.64 231.274 224.658C229.362 224.329 228.651 226.456 229.546 227.097ZM193.609 198.347C198.265 198.125 202.369 200.214 206.807 201.164C210.908 202.042 214.949 201.514 218.937 200.398C225.41 198.586 228.086 208.486 221.701 210.415C217.052 211.82 212.156 211.918 207.385 211.193C203.147 210.55 199.594 208.488 195.553 207.288C192.085 206.259 188.005 206.686 184.343 207.171L182.921 207.362C180.808 207.647 178.684 207.932 176.592 208.345C174.777 208.703 172.964 209.359 171.112 209.435C170.901 209.444 170.723 209.171 170.856 208.989C173.008 206.037 177.156 203.707 180.456 202.153L180.679 202.049C184.753 200.151 189.074 198.563 193.609 198.347ZM191.903 220.116L191.902 220.014C191.908 217.132 193.589 210.55 197.742 210.55C200.337 210.55 201.913 215.029 202.185 219.647L202.195 219.835C202.315 222.706 201.527 228.981 197.742 228.981C193.918 228.981 191.942 223.038 191.903 220.116ZM253.056 220.116L253.056 220.014C253.05 217.132 251.369 210.55 247.216 210.55C244.686 210.55 243.125 214.808 242.796 219.301L242.773 219.647C242.609 222.421 243.346 228.981 247.216 228.981C251.04 228.981 253.016 223.038 253.056 220.116ZM252.992 194.836L253.289 194.843C258.143 195.011 263.136 197.884 264.432 202.71C264.499 202.96 264.19 203.129 264.006 202.957C260.015 199.223 254.647 202.791 250.651 204.661L249.183 205.338C244.031 207.733 238.171 210.549 232.45 208.764C229.733 207.916 228.007 205.127 228.782 202.31C229.472 199.803 232.5 197.697 235.123 198.601L235.242 198.645C237.373 199.459 239.993 198.634 242.194 197.82L244.002 197.142C246.91 196.04 249.83 194.807 252.992 194.836Z" fill="black"/>
<path fill-rule="evenodd" clip-rule="evenodd" d="M277.632 218.922C273.319 248.075 243.205 251.299 237.855 222.357C238.714 221.982 239.331 221.242 239.202 219.806C239.172 213.499 241.132 206.833 246.826 203.326C252.711 199.707 259.598 199.348 266.408 199.439C279.404 199.13 279.13 209.982 277.632 218.922ZM233.141 206.243C229.062 206.072 223.902 206.215 220.248 208.698C219.244 205.996 216.634 203.11 213.997 201.567C223.799 201.854 233.888 200.89 243.762 200.142C241.398 201.752 239.2 204.17 237.77 206.966C236.444 206.26 234.545 206.326 233.141 206.243ZM215.163 222.013C203.854 260.906 175.624 243.954 172.546 238.969C166.995 230.721 165.951 210.671 170.786 205.31C177.708 200.462 187.507 201.71 195.684 201.591C210.706 201.793 221.376 206.283 215.163 222.013ZM290.986 204.125C287.913 203.723 284.63 203.642 281.773 204.994C280.893 201.259 278.132 198.136 275.014 196.762C274.637 196.289 274.693 196.035 273.404 196.106C265.488 193.729 256.63 194.986 249.023 197.424C237.01 198.435 224.405 199.232 212.291 200.624C200.942 195.532 166.693 194.786 164.565 207.336C161.888 206.936 157.328 204.831 155.079 207.687C138.577 204.892 121.526 208.776 104.952 210.506C100.781 211.274 98.6318 219.546 103.367 219.433C106.03 218.711 103.285 214.282 106.87 213.949C122.861 212.204 138.502 209.728 154.656 209.439C154.094 212.225 165.341 212.407 165.507 210.779C165.531 210.792 165.556 210.8 165.58 210.811C162.801 221.158 165.31 236.05 170.332 242.466C177.369 250.868 195.035 253.278 202.869 247.873C212.974 242.883 223.486 217.839 220.533 209.518C225.892 207.821 231.19 208.331 236.752 209.195C235.478 212.788 233.28 221.634 236.443 222.401C235.862 239.964 251.86 250.922 266.608 243.717C279.372 237.731 283.836 218.782 282.274 207.28C283.863 210.348 297.206 207.008 290.986 204.125Z" fill="black"/>
</svg>
