<svg width="68" height="68" viewBox="0 0 68 68" fill="none" xmlns="http://www.w3.org/2000/svg">
<path d="M34 52.4167C38.8844 52.4167 43.5688 50.4764 47.0226 47.0226C50.4764 43.5688 52.4167 38.8844 52.4167 34C52.4167 29.1156 50.4764 24.4313 47.0226 20.9775C43.5688 17.5237 38.8844 15.5833 34 15.5833C29.1156 15.5833 24.4313 17.5237 20.9775 20.9775C17.5237 24.4313 15.5834 29.1156 15.5834 34C15.5834 38.8844 17.5237 43.5688 20.9775 47.0226C24.4313 50.4764 29.1156 52.4167 34 52.4167V52.4167Z" stroke="#797E7F" stroke-width="3" stroke-linecap="round" stroke-linejoin="round"/>
<path d="M54.23 54.23L53.8616 53.8617M53.8616 14.1383L54.23 13.77L53.8616 14.1383ZM13.77 54.23L14.1383 53.8617L13.77 54.23ZM34 5.89332V5.66666V5.89332ZM34 62.3333V62.1067V62.3333ZM5.89329 34H5.66663H5.89329ZM62.3333 34H62.1066H62.3333ZM14.1383 14.1383L13.77 13.77L14.1383 14.1383Z" stroke="#797E7F" stroke-width="5" stroke-linecap="round" stroke-linejoin="round"/>
</svg>
